<svg id="award-illustration" xmlns="http://www.w3.org/2000/svg" width="60" height="60" viewBox="0 0 60 60">
  <rect id="placeholder" width="60" height="60" fill="none"/>
  <g id="Winner" transform="translate(0 8.845)">
    <g id="Group_178578" data-name="Group 178578" transform="translate(0 2.056)">
      <path id="Path_103031" data-name="Path 103031" d="M16.638,41.207a.82.82,0,0,0-.694-.042A5.222,5.222,0,0,0,12.9,44.471a5.22,5.22,0,0,0-4.462.431.811.811,0,0,0-.386.579,5.241,5.241,0,0,0,7.893,5.265c.026-.016.041-.043.065-.061s.029,0,.043-.008a5.2,5.2,0,0,0,3.285-4.554A5.266,5.266,0,0,0,16.638,41.207Zm-1.886,8.338a3.629,3.629,0,0,1-5.131-3.436,3.6,3.6,0,0,1,3.43.215c.009.006.092.058.1.063a3.623,3.623,0,0,1,.383.294c.041.036.076.077.115.114.075.073.152.144.22.223.043.049.079.1.12.154.057.073.115.144.166.221.038.057.07.119.105.178.044.075.09.15.128.228s.057.13.084.195.067.158.1.239.041.137.059.206.045.165.062.249.023.143.032.214.023.171.029.258,0,.145.005.217C14.757,49.432,14.755,49.489,14.752,49.546Zm2.969-3.521a3.594,3.594,0,0,1-1.387,2.642c-.006-.043-.017-.084-.024-.127-.01-.061-.022-.121-.034-.181q-.049-.242-.12-.477c-.014-.045-.025-.091-.04-.136a5.222,5.222,0,0,0-.229-.572c-.02-.043-.044-.084-.065-.126q-.111-.221-.244-.432c-.031-.05-.062-.1-.1-.148a5.242,5.242,0,0,0-.368-.486l-.011-.014a5.306,5.306,0,0,0-.448-.452c-.042-.038-.086-.074-.129-.111s-.11-.1-.169-.146a3.609,3.609,0,0,1,1.835-2.421,3.644,3.644,0,0,1,1.531,3.187Z" transform="translate(-3.138 -15.952)" fill="#1473e6"/>
      <path id="Path_103032" data-name="Path 103032" d="M6.933,17.442a.812.812,0,0,0,.688.079A4.075,4.075,0,0,0,8.468,10.2a.816.816,0,0,0-.688-.079,4.075,4.075,0,0,0-.847,7.318ZM6.651,13.7a2.426,2.426,0,0,1,1.282-1.883,2.456,2.456,0,0,1-.465,4.01A2.428,2.428,0,0,1,6.651,13.7Z" transform="translate(-2.574 -10.081)" fill="#1473e6"/>
      <path id="Path_103033" data-name="Path 103033" d="M9.96,40.22c.022-.009.036-.028.057-.038s.038,0,.057-.006a5.274,5.274,0,0,0,4.007-3.931h0a5.261,5.261,0,0,0-1.847-5.307.819.819,0,0,0-.675-.157A5.21,5.21,0,0,0,8,33.532a5.2,5.2,0,0,0-4.462-.33.813.813,0,0,0-.478.505,5.248,5.248,0,0,0,6.9,6.513Zm-.81-5.18h0c.007-.021.014-.045.015-.05a3.6,3.6,0,0,1,2.358-2.52,3.58,3.58,0,0,1,.979,3.4,3.646,3.646,0,0,1-2.383,2.611c-.036-.036-.073-.072-.107-.109-.051-.055-.1-.109-.147-.167s-.109-.141-.16-.214c-.039-.056-.078-.111-.114-.168-.052-.084-.1-.17-.142-.257-.026-.051-.054-.1-.077-.153-.048-.106-.089-.215-.126-.325-.012-.036-.027-.071-.038-.107a3.625,3.625,0,0,1-.105-.438l0-.015a3.753,3.753,0,0,1,.05-1.491ZM4.5,34.591a3.591,3.591,0,0,1,2.983.515c-.011.072-.015.143-.023.215s-.014.115-.018.172A5.23,5.23,0,0,0,7.5,36.775c.006.039.014.076.021.115a5.24,5.24,0,0,0,.152.611l0,.009a5.247,5.247,0,0,0,.71,1.434A3.629,3.629,0,0,1,4.5,34.591Z" transform="translate(-2.155 -13.994)" fill="#1473e6"/>
      <path id="Path_103034" data-name="Path 103034" d="M6.461,28.321a4.527,4.527,0,0,0,.846-.08c.018,0,.031-.016.048-.02l.012,0h.022a4.437,4.437,0,0,0,3.968-2.672v0a4.428,4.428,0,0,0-.715-4.728.809.809,0,0,0-.63-.279,4.409,4.409,0,0,0-3.324,1.625,4.4,4.4,0,0,0-3.58-.868.806.806,0,0,0-.557.407,4.471,4.471,0,0,0,3.91,6.614Zm3.2-6.121a2.861,2.861,0,0,1-1.293,4.185c.006-.037,0-.075.008-.112a4.5,4.5,0,0,0,.039-.566c0-.072,0-.144,0-.216a4.48,4.48,0,0,0-.055-.53c-.01-.059-.015-.118-.027-.177a4.384,4.384,0,0,0-.191-.668C8.12,24.077,8.1,24.04,8.083,24a4.247,4.247,0,0,0-.254-.515c-.016-.028-.026-.06-.043-.088a2.8,2.8,0,0,1,1.874-1.2Zm-5.851.643a2.78,2.78,0,0,1,2.376,1.1.628.628,0,0,0,.064.073,2.869,2.869,0,0,1,.324.587c.008.019.018.037.026.057a2.866,2.866,0,0,1,.159.605c0,.029.011.058.014.088a2.85,2.85,0,0,1,.008.609c0,.033-.006.066-.011.1a2.831,2.831,0,0,1-.142.6c-.005.014-.011.028-.016.042a2.849,2.849,0,0,1-2.8-3.851Z" transform="translate(-2.004 -12.06)" fill="#1473e6"/>
    </g>
    <path id="Path_103035" data-name="Path 103035" d="M52.911,44.9a5.222,5.222,0,0,0-4.463-.434,5.222,5.222,0,0,0-3.042-3.3.821.821,0,0,0-.694.042,5.266,5.266,0,0,0-2.7,4.915A5.2,5.2,0,0,0,45.3,50.676c.014.006.029,0,.043.008s.038.046.065.061A5.249,5.249,0,0,0,53.3,45.48.811.811,0,0,0,52.911,44.9Zm-6.69,1.093a5.224,5.224,0,0,0-.358.475c-.032.047-.062.094-.092.142q-.136.216-.25.444c-.019.038-.04.074-.058.112a5.217,5.217,0,0,0-.231.579c-.014.041-.024.084-.037.125q-.074.243-.124.494c-.011.055-.022.11-.031.165s-.019.089-.025.134a3.6,3.6,0,0,1-1.386-2.641h0a3.644,3.644,0,0,1,1.53-3.187,3.608,3.608,0,0,1,1.834,2.42c-.064.05-.123.105-.184.158-.04.034-.08.067-.119.1a5.232,5.232,0,0,0-.449.453Zm3.9,3.267a3.593,3.593,0,0,1-3.519.284c0-.057,0-.113,0-.169,0-.073,0-.147.005-.219s.017-.17.028-.254.019-.147.034-.219.038-.158.059-.236.039-.149.064-.222.054-.138.082-.207.062-.155.1-.23c.029-.058.063-.113.095-.169.046-.081.09-.163.142-.24.029-.043.063-.083.094-.125.063-.085.124-.17.195-.25.026-.03.057-.056.084-.085.08-.085.161-.17.251-.248.038-.033.081-.061.121-.093.084-.067.167-.136.257-.2l.013-.009.081-.05a3.6,3.6,0,0,1,3.43-.215,3.589,3.589,0,0,1-1.611,3.152Z" transform="translate(1.779 -13.897)" fill="#1473e6"/>
    <path id="Path_103036" data-name="Path 103036" d="M55.125,17.521a.812.812,0,0,0,.688-.079,4.075,4.075,0,0,0-.847-7.318.816.816,0,0,0-.688.079,4.075,4.075,0,0,0,.847,7.318Zm-.312-5.7A2.426,2.426,0,0,1,56.095,13.7h0a2.428,2.428,0,0,1-.817,2.126,2.456,2.456,0,0,1-.465-4.01Z" transform="translate(-0.181 -8.026)" fill="#1473e6"/>
    <path id="Path_103037" data-name="Path 103037" d="M57.8,33.2a5.2,5.2,0,0,0-4.466.332,5.2,5.2,0,0,0-3.555-2.754.824.824,0,0,0-.675.157,5.261,5.261,0,0,0-1.846,5.306h0a5.274,5.274,0,0,0,4.008,3.931c.019,0,.038,0,.057.006s.035.03.057.038a5.248,5.248,0,0,0,6.9-6.512A.813.813,0,0,0,57.8,33.2ZM52.28,36.164a3.619,3.619,0,0,1-.04.367c0,.024-.011.048-.016.072a3.618,3.618,0,0,1-.1.4l-.009.026a3.624,3.624,0,0,1-.687,1.232L51.4,38.3c-.057.065-.12.124-.182.185a3.648,3.648,0,0,1-2.383-2.611,3.58,3.58,0,0,1,.979-3.4,3.6,3.6,0,0,1,2.358,2.52c0,.016.021.077.026.093a3.646,3.646,0,0,1,.079.481c0,.043,0,.086,0,.13.007.118.014.236.01.354C52.289,36.086,52.283,36.124,52.28,36.164Zm3.493,1.8a3.63,3.63,0,0,1-2.818.975c.027-.038.049-.079.075-.118s.06-.093.09-.141q.137-.219.251-.449c.019-.039.041-.076.058-.115a5.267,5.267,0,0,0,.23-.582c.012-.038.022-.077.033-.116q.074-.245.123-.495c.011-.057.022-.114.032-.17a5.155,5.155,0,0,0,.061-.548c0-.024.005-.049.006-.073a5.1,5.1,0,0,0-.015-.623c0-.053-.012-.105-.018-.159-.009-.083-.015-.167-.028-.25a3.588,3.588,0,0,1,2.981-.513A3.586,3.586,0,0,1,55.773,37.968Z" transform="translate(0.811 -11.939)" fill="#1473e6"/>
    <path id="Path_103038" data-name="Path 103038" d="M50.37,25.551a4.437,4.437,0,0,0,3.968,2.672h.021s.009,0,.013,0,.03.017.048.02a4.53,4.53,0,0,0,.846.08,4.471,4.471,0,0,0,3.91-6.614.806.806,0,0,0-.557-.407,4.4,4.4,0,0,0-3.58.869,4.409,4.409,0,0,0-3.324-1.626.822.822,0,0,0-.63.279,4.428,4.428,0,0,0-.715,4.728Zm4.593-.211c0-.03.011-.061.015-.091a2.95,2.95,0,0,1,.17-.62c.008-.02.019-.039.027-.059a3.166,3.166,0,0,1,.321-.576c.016-.018.033-.036.048-.055a2.778,2.778,0,0,1,2.376-1.1,2.849,2.849,0,0,1-2.8,3.851c-.005-.014-.011-.028-.016-.042a2.8,2.8,0,0,1-.141-.6c0-.034-.007-.067-.01-.1a2.832,2.832,0,0,1,.012-.614ZM52.069,22.2a2.8,2.8,0,0,1,1.876,1.2c-.014.023-.022.049-.035.072a4.5,4.5,0,0,0-.286.591c-.007.017-.016.032-.022.05a4.483,4.483,0,0,0-.192.675c-.014.066-.021.133-.032.2a4.446,4.446,0,0,0-.053.5c0,.075-.006.15-.006.225a4.47,4.47,0,0,0,.037.546c.005.041,0,.082.008.122A2.862,2.862,0,0,1,52.068,22.2Z" transform="translate(0.269 -10.006)" fill="#1473e6"/>
    <path id="Path_103102" data-name="Path 103102" d="M186.907,45.869c5.593-1.286,6.829-7.474,6.687-10.652a.935.935,0,0,0-.934-.893H187.2v-2a.935.935,0,0,0-.935-.935h-1.377c-.822-3.147-3.209-4.807-6.957-4.807s-6.135,1.66-6.957,4.807H169.6a.935.935,0,0,0-.935.935v2H163.2a.935.935,0,0,0-.934.893c-.143,3.178,1.093,9.365,6.687,10.652.935,3.87,4.031,7.5,8.041,8v9.472c-3.9.21-7.286,1.727-8.974,4.068a.935.935,0,0,0,.758,1.482h18.3a.935.935,0,0,0,.758-1.482c-1.688-2.341-5.073-3.858-8.974-4.068V53.868c4.011-.5,7.107-4.129,8.042-8Zm4.8-9.675c-.113,1.906-.794,6.3-4.515,7.635,0-.111.008-.223.008-.334v-7.3ZM177.93,28.448c2.692,0,4.31.94,5.009,2.937H172.921C173.62,29.388,175.238,28.448,177.93,28.448Zm-13.782,7.747h4.514v7.3c0,.112,0,.224.008.336-3.767-1.34-4.423-5.725-4.522-7.638Zm6.384,7.3V33.255h14.8V43.5c0,3.959-3.232,8.561-7.4,8.561s-7.4-4.6-7.4-8.561Zm.581,23.524a13.561,13.561,0,0,1,13.635,0Z" transform="translate(-147.935 -26.578)" fill="#b3b3b3"/>
  </g>
</svg>
