<svg xmlns="http://www.w3.org/2000/svg" width="100" height="255.64" viewBox="0 0 200 355.64"><defs><style>.a,.d{fill:none;}.a{stroke:#b3b4b4;}.a,.b,.c,.d{stroke-linecap:round;stroke-linejoin:round;stroke-width:4px;}.b,.c{fill:#fff;}.b,.d{stroke:#1373e6;}.b{opacity:0.95;}.c{stroke:#b3b3b3;}</style></defs><g transform="translate(-86 -172.18)"><path class="a" d="M134.72,397.38a39.12,39.12,0,0,0,38.75-39.51l-.14-13.9A17.13,17.13,0,0,0,156,327l-19.61.18a19,19,0,0,1-19.16-18.91l-.08-28.68a6,6,0,0,0-6-5.87l-10.09.09a5.53,5.53,0,0,1-5.32-7.27l11-33.58A75.74,75.74,0,0,1,178,180.78l8.27-.08a61.8,61.8,0,0,1,28,6.36"/><line class="a" y1="7.52" transform="translate(231.35 174.18)"/><line class="a" y1="5.32" x2="5.32" transform="translate(264.04 191.48)"/><line class="a" x2="7.52" transform="translate(276.48 230.58)"/><line class="a" x2="5.32" y2="5.32" transform="translate(261.38 263.27)"/><path class="a" d="M227.65,273.14H212.46v-5a4.91,4.91,0,0,0-1.07-3.06c-11.32-14.09-18.9-21.52-18.9-35.19,0-19.25,15.2-34.82,33.84-34.51l.47-.1c18.63-.31,33.83,15.25,33.83,34.5,0,11.63-5.48,18.75-14.08,29.28a26.33,26.33,0,0,0-5.89,16.64v10.9a4.23,4.23,0,0,1-1,2.68l-6.86,8.34a4.17,4.17,0,0,1-3.23,1.53h-6.09a4.2,4.2,0,0,1-3.24-1.53l-6.86-8.35a4.18,4.18,0,0,1-1-2.66V273.14"/><path class="b" d="M243.23,232a16.63,16.63,0,0,0,.26-3.75,16.81,16.81,0,0,0-.6-3.72l3.35-3.09a2.37,2.37,0,0,0-.12-2.62L244.3,216a2.35,2.35,0,0,0-2.34-1.2l-4.21,1.75a16.26,16.26,0,0,0-6.63-3.44l-1-4.44a2.36,2.36,0,0,0-2.33-1.22l-3.38.16A2.38,2.38,0,0,0,222.2,209l-.59,4.51a16.37,16.37,0,0,0-6.29,4L211,216.18a2.38,2.38,0,0,0-2.22,1.41l-1.56,3a2.36,2.36,0,0,0,.13,2.62l3.62,2.77a16.071,16.071,0,0,0-.26,3.75,16.81,16.81,0,0,0,.6,3.72l-3.35,3.08a2.35,2.35,0,0,0,.12,2.62l1.82,2.86a2.39,2.39,0,0,0,2.34,1.2l4.2-1.75a16.48,16.48,0,0,0,6.64,3.44l1,4.44a2.36,2.36,0,0,0,2.33,1.21l3.38-.15A2.38,2.38,0,0,0,232,249l.59-4.51a16.49,16.49,0,0,0,6.29-4l4.35,1.36a2.38,2.38,0,0,0,2.22-1.41l1.55-3a2.36,2.36,0,0,0-.12-2.62Z"/><path class="b" d="M235,228.62a7.92,7.92,0,1,0-2.055,5.711A7.93,7.93,0,0,0,235,228.62Z"/><path class="a" d="M257.16,401.17V366a6.55,6.55,0,0,0-6.55-6.55H198.24a6.54,6.54,0,0,1-6.55-6.54h0a6.55,6.55,0,0,1,6.55-6.55h52.37a6.55,6.55,0,0,0,6.55-6.55h0a6.54,6.54,0,0,0-6.55-6.54H198.24a6.55,6.55,0,0,1-6.55-6.55h0a6.55,6.55,0,0,1,6.55-6.55h21.82a6.55,6.55,0,0,0,6.55-6.55V307"/><line class="a" y1="8.73" x2="8.73" transform="translate(257.16 392.44)"/><line class="a" x1="8.73" y1="8.73" transform="translate(248.43 392.44)"/><path class="a" d="M106.87,470.37V411.93a2.58,2.58,0,0,1,2.57-2.58H264.11a2.58,2.58,0,0,1,2.58,2.58V513.75a2.57,2.57,0,0,1-2.58,2.58H207.76"/><line class="a" x2="158.54" transform="translate(107.51 425.46)"/><line class="a" x2="10.31" transform="translate(115.24 417.73)"/><path class="c" d="M180.9,525.82c7.16,0,19.81-4.61,19.81-20.19,0-11.93-7.88-20.63-21.25-21.93,2.71-13.44-8.21-27.9-23.73-28-17.88-.08-24.88,14-26.45,19.88-18.1-4.89-31.93,10.42-27.28,23.5-8.15-.57-14,7.77-14,13.54,0,5.51,3.64,13.2,14.29,13.2Z"/><line class="d" y2="12.71" transform="translate(146.23 493.63)"/><line class="d" x2="13.19" transform="translate(139.64 499.75)"/><circle class="d" cx="15.66" cy="15.66" r="15.66" transform="translate(130.57 484.32)"/></g></svg>
